<?xml version="1.0" encoding="UTF-8" standalone="no"?>
<svg
   viewBox="0 0 512 512"
   version="1.1"
   id="svg1"
   sodipodi:docname="app-system.svg"
   width="512"
   height="512"
   inkscape:version="1.3.2 (091e20e, 2023-11-25, custom)"
   inkscape:export-filename="app-system.png"
   inkscape:export-xdpi="54"
   inkscape:export-ydpi="54"
   xmlns:inkscape="http://www.inkscape.org/namespaces/inkscape"
   xmlns:sodipodi="http://sodipodi.sourceforge.net/DTD/sodipodi-0.dtd"
   xmlns="http://www.w3.org/2000/svg"
   xmlns:svg="http://www.w3.org/2000/svg">
  <defs
     id="defs1" />
  <sodipodi:namedview
     id="namedview1"
     pagecolor="#000000"
     bordercolor="#666666"
     borderopacity="1.0"
     inkscape:showpageshadow="2"
     inkscape:pageopacity="0.0"
     inkscape:pagecheckerboard="0"
     inkscape:deskcolor="#d1d1d1"
     inkscape:zoom="1.2664393"
     inkscape:cx="230.56771"
     inkscape:cy="283.86675"
     inkscape:window-width="1931"
     inkscape:window-height="1493"
     inkscape:window-x="3980"
     inkscape:window-y="347"
     inkscape:window-maximized="0"
     inkscape:current-layer="g1" />
  <!--!Font Awesome Free 6.7.2 by @fontawesome - https://fontawesome.com License - https://fontawesome.com/license/free Copyright 2024 Fonticons, Inc.-->
  <g
     id="g1">
    <g
       id="g2"
       transform="matrix(1.801474,0,0,1.801474,-203.47791,-205.21522)"
       style="stroke-width:0.555101">
      <path
         d="m 356.55,181.51104 c 21.6,17.6 35.45,44.45 35.45,74.5 0,30.05 -13.85,56.9 -35.45,74.5 -5.15,4.2 -12.7,3.4 -16.9,-1.75 -4.2,-5.15 -3.4,-12.7 1.75,-16.9 16.25,-13.2 26.6,-33.3 26.6,-55.85 0,-22.55 -10.35,-42.65 -26.6,-55.9 -5.15,-4.2 -5.9,-11.75 -1.75,-16.9 4.15,-5.15 11.75,-5.9 16.9,-1.75 z m -30.25,37.25 c 10.75,8.8 17.7,22.2 17.7,37.25 0,15.05 -6.95,28.45 -17.7,37.25 -5.15,4.2 -12.7,3.4 -16.9,-1.75 -4.2,-5.15 -3.4,-12.7 1.75,-16.9 5.4,-4.4 8.85,-11.1 8.85,-18.6 0,-7.5 -3.45,-14.2 -8.85,-18.65 -5.15,-4.2 -5.9,-11.75 -1.75,-16.9 4.15,-5.15 11.75,-5.9 16.9,-1.75 z"
         id="path1"
         sodipodi:nodetypes="cscscscscccscscscscc"
         style="fill:#ffffff;fill-opacity:1;stroke-width:0.555101" />
      <path
         style="color:#000000;fill:#ffffff;stroke-width:0.555101;-inkscape-stroke:none"
         d="m 255.61914,145.36133 c -6.16938,0.0712 -12.26775,2.32585 -17.04687,6.63281 l -55.48047,49.73047 h -25.02344 c -21.97819,0 -39.95508,18.1923 -39.95508,40.19141 v 28.1914 c 0,21.99912 17.97689,40.19336 39.95508,40.19336 h 25.02344 l 55.48047,49.73047 c 7.61142,6.85945 18.67855,8.60552 28.0371,4.33789 9.27904,-4.23139 15.27735,-13.57211 15.27735,-23.78125 V 171.43555 c 0,-10.20914 -5.99826,-19.54792 -15.27735,-23.7793 l -0.0391,-0.0195 -0.0391,-0.0176 c -3.48208,-1.55735 -7.21048,-2.30055 -10.91211,-2.25781 z m -0.008,23.99609 c 0.34252,-0.0503 0.70975,0.008 1.07422,0.16211 0.74247,0.35597 1.20117,1.04073 1.20117,1.91602 v 169.15234 c 0,0.89145 -0.46724,1.59549 -1.23438,1.94531 -0.68763,0.31357 -1.41342,0.20891 -2.01367,-0.33203 l -0.0117,-0.01 -62.35351,-55.89063 h -34.20508 c -8.85925,0 -15.95508,-7.09321 -15.95508,-16.19336 v -28.1914 c 0,-9.10014 7.09584,-16.19141 15.95508,-16.19141 h 34.20508 l 62.35351,-55.89063 0.0117,-0.0117 c 0.28254,-0.25462 0.61516,-0.41235 0.97266,-0.46485 z"
         id="path1-6-9" />
    </g>
  </g>
</svg>
