<?xml version="1.0" encoding="UTF-8" standalone="no"?>
<!-- Created with Inkscape (http://www.inkscape.org/) -->

<svg
   width="512"
   height="256"
   viewBox="0 0 512 256"
   version="1.1"
   id="svg1"
   inkscape:version="1.3.2 (091e20e, 2023-11-25, custom)"
   sodipodi:docname="fade-out-org.svg"
   inkscape:export-filename="fade-out.png"
   inkscape:export-xdpi="54"
   inkscape:export-ydpi="54"
   xmlns:inkscape="http://www.inkscape.org/namespaces/inkscape"
   xmlns:sodipodi="http://sodipodi.sourceforge.net/DTD/sodipodi-0.dtd"
   xmlns="http://www.w3.org/2000/svg"
   xmlns:svg="http://www.w3.org/2000/svg">
  <sodipodi:namedview
     id="namedview1"
     pagecolor="#000000"
     bordercolor="#eeeeee"
     borderopacity="1"
     inkscape:showpageshadow="0"
     inkscape:pageopacity="0"
     inkscape:pagecheckerboard="0"
     inkscape:deskcolor="#505050"
     inkscape:document-units="px"
     inkscape:zoom="1.2664393"
     inkscape:cx="259.78347"
     inkscape:cy="171.74135"
     inkscape:window-width="1858"
     inkscape:window-height="1615"
     inkscape:window-x="4676"
     inkscape:window-y="386"
     inkscape:window-maximized="0"
     inkscape:current-layer="g1" />
  <defs
     id="defs1">
    <inkscape:path-effect
       effect="fillet_chamfer"
       id="path-effect9"
       is_visible="true"
       lpeversion="1"
       nodesatellites_param="F,0,1,1,0,13,0,1 @ F,0,0,1,0,20,0,1 @ F,0,1,1,0,13,0,1 @ F,0,1,1,0,13,0,1 @ F,0,0,1,0,0,0,1 @ F,0,1,1,0,13,0,1"
       radius="13"
       unit="px"
       method="auto"
       mode="F"
       chamfer_steps="1"
       flexible="false"
       use_knot_distance="true"
       apply_no_radius="true"
       apply_with_radius="true"
       only_selected="true"
       hide_knots="false" />
    <inkscape:path-effect
       effect="fillet_chamfer"
       id="path-effect8"
       is_visible="true"
       lpeversion="1"
       nodesatellites_param="F,0,0,1,0,0,0,1 @ F,0,0,1,0,0,0,1 @ F,0,0,1,0,0,0,1 @ F,0,0,1,0,0,0,1 @ F,0,0,1,0,0,0,1 @ F,0,0,1,0,0,0,1"
       radius="0"
       unit="px"
       method="auto"
       mode="F"
       chamfer_steps="1"
       flexible="false"
       use_knot_distance="true"
       apply_no_radius="true"
       apply_with_radius="true"
       only_selected="false"
       hide_knots="false" />
    <inkscape:path-effect
       effect="fillet_chamfer"
       id="path-effect9-4"
       is_visible="true"
       lpeversion="1"
       nodesatellites_param="F,0,1,1,0,13,0,1 @ F,0,0,1,0,20,0,1 @ F,0,1,1,0,13,0,1 @ F,0,1,1,0,13,0,1 @ F,0,0,1,0,0,0,1 @ F,0,1,1,0,13,0,1"
       radius="13"
       unit="px"
       method="auto"
       mode="F"
       chamfer_steps="1"
       flexible="false"
       use_knot_distance="true"
       apply_no_radius="true"
       apply_with_radius="true"
       only_selected="true"
       hide_knots="false" />
  </defs>
  <g
     id="g1"
     transform="matrix(1.6138352,0,0,1.6104445,-194.44186,-336.04755)"
     style="stroke:#000000;stroke-width:29.7741;stroke-dasharray:none;stroke-opacity:1;paint-order:stroke fill markers">
    <g
       id="path9"
       transform="translate(-4.8551955e-4)">
      <path
         style="color:#000000;fill:#000000;stroke:none;-inkscape-stroke:none"
         d="m 224.39648,211.06055 c -6.71257,-0.87394 -13.64773,1.0938 -18.95507,5.77539 l -33.82813,29.67773 h -13.5293 c -17.92703,0 -32.94726,14.70683 -32.94726,32.71485 v 17.82812 c 0,18.00801 15.02022,32.7168 32.94726,32.7168 h 13.5293 l 33.82813,29.67773 c 6.9e-4,6.1e-4 0.001,0.001 0.002,0.002 7.03239,6.20181 17.0545,7.72794 25.62109,3.9043 8.46976,-3.78049 14.15235,-12.31361 14.15235,-21.72851 V 234.6582 c 0,-9.4149 -5.68244,-17.94803 -14.15235,-21.72851 l -0.0488,-0.0234 -0.0488,-0.0195 c -2.119,-0.92762 -4.33279,-1.53486 -6.57032,-1.82617 z m -8.95312,36.60742 v 80.95117 L 182.82422,300 h -24.74024 c -1.99687,0 -3.17382,-1.28427 -3.17382,-2.94336 v -17.82812 c 0,-1.65911 1.17694,-2.94141 3.17382,-2.94141 h 24.74024 z"
         id="path8" />
      <path
         style="color:#000000;fill:#ffffff;stroke:none;-inkscape-stroke:none"
         d="m 224.99642,226.52332 c 3.2454,1.44856 5.33375,4.62428 5.33375,8.13428 v 106.97137 c 0,3.51 -2.08835,6.6857 -5.33375,8.13429 -3.2454,1.44856 -7.05522,0.86356 -9.70799,-1.47644 l -38.06998,-33.40069 h -19.13378 c -9.96197,0 -18.06137,-7.995 -18.06137,-17.82856 V 279.229 c 0,-9.83357 8.0994,-17.82856 18.06137,-17.82856 h 19.13378 l 38.06998,-33.4007 c 2.65277,-2.34 6.46259,-2.89714 9.70799,-1.47642 z"
         id="path10" />
    </g>
    <g
       id="path1">
      <path
         style="color:#000000;fill:#000000;stroke:none;stroke-linejoin:round;-inkscape-stroke:none"
         d="m 259.36719,226.54687 a 14.888538,14.888538 0 0 0 -12.42774,14.79102 l 0.69141,93.75977 a 14.888538,14.888538 0 0 0 14.88672,14.77734 h 155.6875 a 14.888538,14.888538 0 0 0 7.65625,-27.6543 L 269.48242,228.45898 a 14.888538,14.888538 0 0 0 -10.11523,-1.91211 z m 17.54101,41.08008 87.51953,52.47461 h -87.13086 z"
         id="path2" />
      <path
         style="color:#000000;fill:#ffffff;stroke:none;stroke-linejoin:round;-inkscape-stroke:none"
         d="m 261.82643,241.22712 0.69195,93.76079 h 155.68757 z"
         id="path3" />
    </g>
  </g>
  <g
     inkscape:label="Layer 1"
     inkscape:groupmode="layer"
     id="layer1"
     transform="translate(-2e-6,-56.62038)" />
</svg>
