<?xml version="1.0" encoding="UTF-8" standalone="no"?>
<svg
   viewBox="0 0 512 512"
   version="1.1"
   id="svg1"
   sodipodi:docname="microphone-solid.svg"
   width="512"
   height="512"
   inkscape:version="1.3.2 (091e20e, 2023-11-25, custom)"
   inkscape:export-filename="device-mic.png"
   inkscape:export-xdpi="54"
   inkscape:export-ydpi="54"
   xmlns:inkscape="http://www.inkscape.org/namespaces/inkscape"
   xmlns:sodipodi="http://sodipodi.sourceforge.net/DTD/sodipodi-0.dtd"
   xmlns="http://www.w3.org/2000/svg"
   xmlns:svg="http://www.w3.org/2000/svg">
  <defs
     id="defs1" />
  <sodipodi:namedview
     id="namedview1"
     pagecolor="#505050"
     bordercolor="#eeeeee"
     borderopacity="1"
     inkscape:showpageshadow="0"
     inkscape:pageopacity="0"
     inkscape:pagecheckerboard="0"
     inkscape:deskcolor="#505050"
     inkscape:zoom="1.2664393"
     inkscape:cx="174.50501"
     inkscape:cy="279.12905"
     inkscape:window-width="1931"
     inkscape:window-height="1493"
     inkscape:window-x="4115"
     inkscape:window-y="208"
     inkscape:window-maximized="0"
     inkscape:current-layer="svg1" />
  <!--!Font Awesome Free 6.7.2 by @fontawesome - https://fontawesome.com License - https://fontawesome.com/license/free Copyright 2025 Fonticons, Inc.-->
  <path
     d="M 256,6 C 204.24219,6 162.25,47.992187 162.25,99.75 V 256 c 0,51.75781 41.99219,93.75 93.75,93.75 51.75781,0 93.75,-41.99219 93.75,-93.75 V 99.75 C 349.75,47.992187 307.75781,6 256,6 Z M 131,216.9375 C 131,203.94922 120.55078,193.5 107.5625,193.5 94.574219,193.5 84.125,203.94922 84.125,216.9375 V 256 c 0,87.01172 64.64844,158.88672 148.4375,170.3125 v 32.8125 h -46.875 c -12.98828,0 -23.4375,10.44922 -23.4375,23.4375 0,12.98828 10.44922,23.4375 23.4375,23.4375 H 256 326.3125 c 12.98828,0 23.4375,-10.44922 23.4375,-23.4375 0,-12.98828 -10.44922,-23.4375 -23.4375,-23.4375 h -46.875 V 426.3125 C 363.22656,414.88672 427.875,343.01172 427.875,256 V 216.9375 C 427.875,203.94922 417.42578,193.5 404.4375,193.5 391.44922,193.5 381,203.94922 381,216.9375 V 256 c 0,69.04297 -55.95703,125 -125,125 -69.04297,0 -125,-55.95703 -125,-125 z"
     id="path1"
     style="stroke-width:1;fill:#ffffff;fill-opacity:1" />
</svg>
