<?xml version="1.0" encoding="UTF-8" standalone="no"?>
<svg
   viewBox="0 0 512 512"
   version="1.1"
   id="svg1"
   sodipodi:docname="question-solid.svg"
   width="512"
   height="512"
   inkscape:version="1.3.2 (091e20e, 2023-11-25, custom)"
   inkscape:export-filename="unknown.png"
   inkscape:export-xdpi="54"
   inkscape:export-ydpi="54"
   xmlns:inkscape="http://www.inkscape.org/namespaces/inkscape"
   xmlns:sodipodi="http://sodipodi.sourceforge.net/DTD/sodipodi-0.dtd"
   xmlns="http://www.w3.org/2000/svg"
   xmlns:svg="http://www.w3.org/2000/svg">
  <defs
     id="defs1" />
  <sodipodi:namedview
     id="namedview1"
     pagecolor="#505050"
     bordercolor="#eeeeee"
     borderopacity="1"
     inkscape:showpageshadow="0"
     inkscape:pageopacity="0"
     inkscape:pagecheckerboard="0"
     inkscape:deskcolor="#505050"
     inkscape:zoom="1.2664393"
     inkscape:cx="-75.408273"
     inkscape:cy="364.80233"
     inkscape:window-width="3840"
     inkscape:window-height="2054"
     inkscape:window-x="3829"
     inkscape:window-y="-11"
     inkscape:window-maximized="1"
     inkscape:current-layer="svg1" />
  <!--!Font Awesome Free 6.7.2 by @fontawesome - https://fontawesome.com License - https://fontawesome.com/license/free Copyright 2025 Fonticons, Inc.-->
  <path
     d="m 176,160 c 0,-35.3 28.7,-64 64,-64 h 32 c 35.3,0 64,28.7 64,64 v 3.6 c 0,21.8 -11.1,42.1 -29.4,53.8 l -42.2,27.1 c -25.2,16.2 -40.4,44.1 -40.4,74 v 1.4 c 0,17.7 14.3,32 32,32 17.7,0 32,-14.3 32,-32 v -1.4 c 0,-8.2 4.2,-15.8 11,-20.2 l 42.2,-27.1 C 377.8,247.6 400,207.1 400,163.5 v -3.6 C 400,89.2 342.7,31.9 272,31.9 H 240 C 169.3,32 112,89.3 112,160 c 0,17.7 14.3,32 32,32 17.7,0 32,-14.3 32,-32 z m 80,320 a 40,40 0 1 0 0,-80 40,40 0 1 0 0,80 z"
     id="path1"
     style="fill:#ffffff;fill-opacity:1" />
</svg>
